<?xml version="1.0" encoding="UTF-8" standalone="no"?>
<svg
   version="1.0"
   width="792.000000pt"
   height="868.000000pt"
   viewBox="0 0 792.000000 868.000000"
   preserveAspectRatio="xMidYMid meet"
   id="svg6"
   sodipodi:docname="logo.svg"
   inkscape:version="1.3.2 (091e20ef0f, 2023-11-25, custom)"
   xmlns:inkscape="http://www.inkscape.org/namespaces/inkscape"
   xmlns:sodipodi="http://sodipodi.sourceforge.net/DTD/sodipodi-0.dtd"
   xmlns="http://www.w3.org/2000/svg"
   xmlns:svg="http://www.w3.org/2000/svg">
  <defs
     id="defs6" />
  <sodipodi:namedview
     id="namedview6"
     pagecolor="#ffffff"
     bordercolor="#000000"
     borderopacity="0.25"
     inkscape:showpageshadow="2"
     inkscape:pageopacity="0.0"
     inkscape:pagecheckerboard="0"
     inkscape:deskcolor="#d1d1d1"
     inkscape:document-units="pt"
     inkscape:zoom="0.22627417"
     inkscape:cx="459.61941"
     inkscape:cy="680.59028"
     inkscape:window-width="1358"
     inkscape:window-height="728"
     inkscape:window-x="5"
     inkscape:window-y="5"
     inkscape:window-maximized="0"
     inkscape:current-layer="svg6" />
  <rect
     style="fill:#ffffff;stroke-width:0.75"
     id="rect1"
     width="799.09546"
     height="877.6449"
     x="-1.9153215"
     y="-0.94886041" />
  <g
     transform="matrix(0.10430641,0,0,-0.10093942,-17.185877,867.94107)"
     fill="#000000"
     stroke="none"
     id="g6"
     style="fill:#070d07;fill-opacity:1">
    <path
       d="M 0,4340 V 0 H 3960 7920 V 4340 8680 H 3960 0 Z m 4342,3874 c 67,-8 139,-20 158,-25 19,-6 62,-17 95,-25 52,-13 312,-110 355,-133 8,-4 24,-13 35,-19 11,-6 53,-27 93,-46 83,-41 207,-123 267,-176 22,-20 78,-66 125,-102 84,-64 117,-97 235,-232 90,-103 123,-153 234,-357 128,-233 187,-398 231,-644 40,-218 37,-738 -4,-840 -7,-16 -23,-73 -36,-125 -65,-262 -220,-571 -397,-792 -177,-219 -294,-328 -523,-484 -68,-47 -313,-167 -420,-207 -92,-34 -277,-83 -410,-108 -87,-16 -497,-17 -625,-1 -118,15 -353,67 -410,92 -22,9 -58,23 -80,30 -90,29 -350,172 -491,272 -151,105 -421,391 -532,561 -109,168 -207,383 -272,597 -63,211 -75,303 -74,605 0,240 2,272 27,414 16,85 36,180 46,210 10,31 26,81 36,111 32,104 172,368 278,525 97,144 273,328 432,450 150,116 218,159 375,238 254,128 494,197 775,220 116,10 366,5 477,-9 z m 618,-5114 c 0,-4 -11,-17 -25,-30 -14,-13 -37,-49 -51,-79 -14,-31 -37,-73 -51,-93 -25,-36 -25,-41 -21,-163 l 4,-125 h -71 -71 v 108 107 l -48,90 c -26,50 -61,109 -77,133 -16,24 -29,45 -29,48 0,2 38,4 85,4 71,0 85,-3 85,-16 0,-9 6,-30 14,-47 8,-18 26,-58 39,-89 14,-32 32,-58 40,-58 18,0 77,142 77,185 0,29 1,30 50,31 28,0 50,-2 50,-6 z m -1515,-10 c 42,-16 75,-59 75,-97 0,-46 -28,-102 -57,-116 l -23,-10 22,-11 c 38,-19 59,-69 60,-141 1,-60 3,-66 25,-71 12,-4 23,-12 23,-20 0,-11 -16,-14 -67,-14 -38,0 -73,4 -80,8 -24,15 -43,82 -43,150 0,56 -4,72 -20,87 -26,24 -25,33 5,47 25,11 26,15 23,87 l -3,75 -33,10 c -23,6 -36,6 -40,-1 -4,-6 -7,-106 -7,-222 0,-198 1,-211 20,-225 18,-14 11,-15 -80,-16 -77,0 -96,3 -87,12 18,18 17,464 0,471 -25,10 261,7 287,-3 z m 651,-22 c 15,-29 79,-224 103,-313 5,-16 20,-56 34,-87 l 26,-58 h -80 c -75,0 -79,1 -79,23 -1,27 -22,107 -33,125 -5,7 -30,12 -62,12 -60,0 -63,-2 -87,-78 -14,-45 -14,-54 -2,-59 30,-11 12,-23 -38,-23 -48,0 -50,1 -36,18 19,20 54,105 92,217 15,44 31,88 36,97 6,10 10,24 10,32 0,9 9,40 21,71 18,49 23,55 49,55 23,0 33,-7 46,-32 z M 1772,1881 c -2,-135 -8,-250 -13,-255 -14,-15 -65,40 -137,149 -83,127 -142,205 -153,205 -5,0 -9,-66 -9,-147 0,-112 4,-155 15,-177 8,-15 15,-30 15,-32 0,-2 -17,-4 -39,-4 h -39 l 14,38 c 8,24 13,87 14,179 0,89 4,143 10,145 6,2 -2,27 -19,58 -41,73 -40,80 12,80 86,0 115,-10 137,-47 20,-35 159,-223 164,-223 10,0 -8,228 -19,246 -17,26 -13,31 23,31 h 27 z m 5408,237 c 25,-6 55,-10 67,-9 15,0 21,-5 21,-17 0,-9 0,-21 2,-27 6,-23 -1,-75 -9,-75 -6,0 -20,18 -32,39 -24,43 -54,61 -103,61 -44,0 -81,-38 -72,-75 7,-27 29,-39 137,-79 25,-9 59,-30 74,-46 24,-25 30,-41 33,-93 3,-52 0,-67 -20,-96 -42,-62 -71,-76 -151,-75 -40,0 -82,6 -94,13 -16,8 -29,9 -42,2 -10,-6 -21,-7 -25,-4 -3,3 -6,42 -6,86 0,72 1,78 16,66 9,-8 25,-32 34,-54 26,-59 61,-88 109,-88 22,0 51,7 65,16 30,20 53,82 37,101 -14,16 -71,40 -135,57 -91,23 -135,86 -121,175 8,53 47,96 107,117 53,19 53,19 108,5 z m -6055,-10 c 13,-13 18,-95 7,-102 -7,-4 -22,11 -37,33 -16,26 -35,43 -53,46 -15,4 -35,8 -45,10 -46,9 -47,5 -47,-225 0,-217 0,-218 23,-224 70,-19 114,9 140,87 8,24 21,43 30,45 14,3 17,-6 17,-52 0,-30 -4,-66 -10,-80 l -10,-26 H 976 811 v 223 c 0,122 -3,235 -7,251 l -7,28 161,-3 c 88,-2 163,-7 167,-11 z m 1302,0 c 15,-12 18,-138 4,-138 -6,0 -22,23 -38,52 -20,37 -36,54 -55,59 -19,5 -28,3 -29,-4 -1,-7 0,-112 1,-234 l 2,-223 h -74 -73 l 3,235 4,235 h -24 c -34,0 -53,-18 -78,-73 -12,-26 -26,-50 -31,-53 -5,-3 -9,24 -9,60 0,96 -3,95 208,95 108,0 182,-5 189,-11 z m 591,-42 c 4,-63 -3,-83 -23,-66 -8,7 -15,19 -15,28 0,9 -10,26 -22,39 -17,18 -32,23 -70,23 h -48 v -96 -96 l 28,6 c 15,4 39,20 54,36 15,17 30,30 32,30 8,0 1,-135 -8,-148 -12,-20 -24,-14 -31,18 -4,20 -13,30 -25,30 -10,0 -22,5 -25,10 -18,29 -25,-1 -25,-109 v -119 l 26,-6 c 14,-4 41,-4 61,0 37,7 67,43 78,96 7,32 24,46 35,29 9,-16 7,-128 -3,-138 -5,-4 -82,-9 -172,-11 l -164,-4 -3,247 c -2,136 -1,249 1,251 3,2 75,3 160,1 l 156,-3 z m 599,28 c 15,-12 36,-35 46,-52 16,-27 17,-37 7,-67 -6,-19 -25,-46 -42,-60 l -31,-26 37,-38 c 34,-35 36,-40 36,-107 v -71 l 30,5 c 37,5 39,-11 4,-35 -35,-23 -122,-19 -148,7 -16,15 -21,39 -26,116 -6,86 -9,98 -31,115 -19,15 -20,19 -7,19 28,0 48,40 48,97 0,41 -5,57 -22,73 -13,11 -32,19 -43,18 -19,-3 -20,-12 -25,-233 l -5,-230 h -68 -67 v 232 c 0,146 -4,234 -10,238 -6,4 -7,11 -4,17 4,6 58,9 150,6 126,-3 146,-6 171,-24 z m 524,-224 v -245 l -73,-3 -73,-3 v 251 251 l 73,-3 73,-3 z m 153,229 c 57,-45 72,-127 36,-199 -25,-48 -23,-47 -98,-56 -71,-8 -77,0 -37,48 21,24 25,40 25,90 0,53 -3,63 -30,90 -16,16 -30,34 -30,39 0,5 24,9 54,9 39,0 60,-6 80,-21 z m 624,3 c 57,-32 74,-122 32,-167 -13,-14 -31,-27 -42,-31 -16,-5 -14,-9 16,-37 34,-33 36,-39 49,-172 2,-16 8,-19 30,-17 l 29,3 -19,-25 c -16,-22 -26,-25 -79,-26 -90,0 -104,17 -104,125 0,77 -2,86 -25,108 l -26,23 36,37 c 33,34 35,40 29,79 -4,24 -11,51 -16,60 -10,20 -51,34 -67,23 -14,-8 -15,-421 -1,-430 6,-3 10,-13 10,-21 0,-11 -16,-14 -75,-14 h -75 v 189 c 0,103 -3,216 -7,251 l -6,62 144,-4 c 89,-2 153,-9 167,-16 z m 536,-234 1,-248 h -75 -75 v 227 c 0,126 -4,238 -8,251 -9,23 -8,23 74,20 l 82,-3 z m 546,239 c 14,1 31,2 38,4 10,3 14,-12 17,-53 2,-32 0,-60 -5,-63 -5,-3 -20,12 -34,33 -43,68 -135,84 -166,30 -13,-25 -13,-31 0,-55 12,-22 36,-35 105,-60 49,-18 95,-40 102,-50 22,-29 35,-94 28,-139 -7,-52 -35,-88 -86,-114 -46,-24 -93,-25 -154,-5 -34,12 -50,13 -65,5 -11,-6 -25,-8 -30,-5 -19,11 -9,155 10,155 4,0 19,-22 34,-49 35,-65 83,-95 139,-88 55,7 78,35 70,85 -3,20 -8,40 -12,44 -3,4 -35,15 -71,24 -124,31 -170,73 -170,156 0,99 77,166 175,152 28,-4 61,-7 75,-7 z m 660,6 c 15,-4 20,-14 20,-42 0,-38 -18,-82 -35,-88 -7,-2 -9,12 -7,36 4,35 1,41 -25,54 -15,8 -45,17 -65,21 -49,9 -49,9 -46,-244 l 3,-205 41,-3 c 53,-4 83,20 104,84 10,28 23,49 31,49 19,0 33,-82 20,-116 -8,-22 -17,-27 -63,-32 -82,-10 -298,-8 -298,2 0,6 5,13 10,16 6,4 10,90 10,225 0,135 -4,221 -10,225 -5,3 -10,11 -10,16 0,10 282,12 320,2 z m -48,-219 c -2,-43 -7,-83 -11,-87 -11,-11 -28,13 -33,43 -1,13 -13,30 -25,36 l -23,11 24,13 c 14,7 30,26 37,42 21,51 34,27 31,-58 z m -5539,10 c -1,-32 -2,-67 -3,-76 0,-26 -25,-22 -40,7 -7,14 -24,32 -36,40 l -23,15 42,40 c 23,22 47,38 52,36 6,-1 9,-29 8,-62 z m 217,-774 c 13,-8 13,-11 -3,-22 -17,-13 -18,-31 -15,-236 l 3,-222 h -70 -70 l 3,226 c 1,158 -1,231 -9,240 -16,20 -95,18 -103,-1 -3,-9 -6,-92 -5,-184 0,-93 -1,-173 -2,-177 -1,-5 -1,-26 0,-46 1,-33 5,-38 34,-47 25,-7 6,-9 -83,-10 -83,0 -110,2 -97,10 15,9 17,31 17,228 0,185 -2,220 -15,225 -8,3 -15,10 -15,16 0,13 409,14 430,0 z m 600,-17 c 31,-17 65,-45 84,-71 29,-41 31,-50 34,-143 4,-92 2,-102 -23,-144 -32,-56 -84,-92 -153,-105 -101,-19 -188,16 -253,103 -35,47 -40,173 -9,244 23,54 67,102 115,127 50,26 144,21 205,-11 z m 555,18 c 3,-5 1,-12 -5,-16 -6,-4 -10,-88 -10,-226 V 670 h 53 c 28,0 58,4 66,9 7,5 19,31 26,57 9,37 17,49 31,49 17,0 19,-8 18,-63 -1,-34 -3,-64 -5,-66 -8,-8 -332,-11 -331,-3 1,4 2,115 2,247 v 240 h 74 c 41,0 77,-4 81,-9 z m 708,-5 c 42,-17 112,-97 128,-143 6,-21 9,-66 7,-108 -6,-86 -44,-166 -98,-201 -31,-20 -48,-23 -160,-24 -165,-2 -155,-3 -139,16 9,11 12,67 12,222 0,114 -3,217 -7,230 -7,22 -7,22 109,22 75,0 127,-5 148,-14 z m 540,-233 -2,-248 -48,-1 c -90,-1 -83,-21 -83,236 0,166 -3,229 -12,232 -31,11 9,25 74,27 l 73,2 z m 457,210 c 18,-20 61,-81 96,-135 35,-54 66,-98 69,-98 5,0 -3,196 -10,243 -4,25 -2,27 30,27 40,0 41,-4 19,-50 -15,-29 -16,-58 -10,-236 l 7,-204 h -28 c -26,0 -40,16 -148,180 -65,99 -122,180 -125,180 -9,0 1,-323 11,-341 7,-14 2,-18 -24,-22 -40,-6 -52,0 -35,20 9,12 14,67 16,193 4,164 2,180 -17,218 -12,23 -21,46 -21,52 0,6 28,10 69,10 67,0 70,-1 101,-37 z m 814,26 c 27,-8 41,-8 49,0 21,21 28,11 23,-36 -3,-27 -5,-56 -5,-65 -1,-18 -31,-26 -31,-8 0,5 -14,25 -31,45 -40,45 -95,61 -143,41 -56,-24 -68,-60 -73,-221 -4,-127 -3,-143 16,-172 22,-36 79,-57 114,-44 44,17 59,45 56,108 l -3,58 h 77 77 l -6,-45 c -8,-61 -26,-86 -82,-114 -133,-67 -279,-36 -360,78 -30,41 -32,50 -32,126 0,70 4,90 26,130 27,49 85,99 139,118 40,14 140,15 189,1 z m 976,2 c 0,-5 -7,-14 -15,-21 -14,-11 -16,-46 -14,-239 l 1,-225 -63,2 c -35,0 -67,1 -71,2 -4,0 -7,110 -8,245 v 245 h 85 c 47,0 85,-4 85,-9 z m 428,-28 c 40,-52 138,-198 144,-214 10,-28 16,-2 21,93 3,76 1,102 -10,118 -18,26 -14,31 29,33 28,2 32,-1 29,-18 -8,-44 -17,-237 -17,-352 1,-118 0,-123 -19,-117 -31,9 -79,68 -178,219 -86,129 -129,179 -113,127 4,-12 7,-84 7,-162 0,-131 2,-141 21,-151 26,-14 13,-25 -39,-32 -44,-5 -56,6 -28,27 11,9 14,47 16,191 2,167 0,183 -20,220 -11,22 -21,43 -21,47 0,5 33,8 74,8 74,0 74,0 104,-37 z m 866,-35 c -1,-38 -4,-71 -7,-74 -2,-3 -15,9 -28,26 -60,79 -75,90 -126,90 -87,0 -88,-2 -91,-209 l -3,-181 25,-25 c 59,-59 170,-14 196,80 9,33 17,45 29,43 13,-3 15,-16 13,-83 -2,-44 -6,-82 -9,-85 -2,-3 -11,3 -18,13 -12,17 -16,17 -37,4 -22,-15 -79,-21 -164,-18 -54,1 -127,50 -159,105 -21,37 -25,55 -25,130 0,94 11,128 59,179 55,60 105,75 241,75 l 106,-1 z M 1108,903 c -10,-2 -28,-2 -40,0 -13,2 -5,4 17,4 22,1 32,-1 23,-4 z M 5465,740 c 13,-14 16,-28 11,-55 -7,-33 -9,-35 -46,-35 -59,0 -70,7 -70,49 0,20 5,42 12,49 19,19 73,14 93,-8 z"
       id="path1"
       style="fill:#070d07;fill-opacity:1" />
    <path
       d="m 3880,8051 c -25,-5 -90,-14 -145,-21 -295,-35 -601,-164 -875,-368 -89,-66 -304,-278 -382,-377 -171,-217 -299,-491 -379,-813 -28,-111 -46,-473 -32,-612 41,-384 206,-786 438,-1065 81,-98 314,-327 350,-344 17,-8 50,-31 75,-51 86,-69 272,-168 420,-223 212,-79 359,-105 635,-114 355,-10 533,22 835,152 182,78 260,121 391,215 220,158 435,402 572,650 35,63 97,206 97,223 0,5 7,23 15,40 23,52 87,248 95,297 5,25 16,88 25,140 33,183 4,659 -49,800 -7,19 -28,82 -47,140 -59,183 -182,404 -342,615 -98,128 -413,395 -539,457 -331,163 -455,207 -703,249 -75,12 -403,20 -455,10 z m 409,-701 c 103,-23 249,-85 322,-137 53,-38 117,-104 144,-151 11,-17 27,-35 37,-38 12,-3 18,-15 18,-35 0,-32 14,-64 37,-87 10,-10 13,-54 13,-177 0,-90 -4,-166 -9,-169 -5,-4 -23,-35 -40,-71 -23,-50 -49,-84 -107,-138 -106,-100 -152,-128 -287,-178 -64,-23 -117,-45 -117,-48 0,-4 24,-15 53,-25 105,-37 253,-109 285,-140 49,-45 129,-148 143,-182 66,-167 69,-180 69,-354 0,-110 -4,-160 -10,-150 -8,12 -10,9 -10,-12 0,-16 4,-28 9,-28 15,0 33,-136 26,-190 -6,-41 -4,-50 8,-50 9,0 19,-17 26,-45 8,-33 19,-48 41,-60 38,-19 108,-19 155,1 38,16 140,22 152,10 19,-19 -151,-97 -275,-126 -98,-24 -206,-25 -317,-5 -44,8 -85,14 -91,15 -23,0 -116,94 -139,139 -52,104 -70,204 -79,453 -3,91 -8,179 -11,195 -2,15 -11,71 -20,123 -15,95 -53,215 -79,255 -36,53 -90,98 -152,127 -67,32 -73,33 -219,36 -88,2 -156,-1 -165,-7 -13,-9 -15,-90 -15,-631 v -620 h 167 c 102,0 169,-4 173,-10 4,-6 10,-8 15,-5 4,3 11,-2 14,-11 4,-9 5,-17 4,-18 -44,-23 -110,-25 -568,-25 -272,1 -513,4 -535,8 -30,5 -41,11 -43,27 -4,28 27,34 187,34 69,0 133,5 141,10 10,7 11,10 2,10 -10,0 -12,239 -10,1198 2,658 5,1204 8,1212 4,13 -18,16 -145,20 -82,3 -156,9 -162,13 -22,14 -15,45 10,50 12,2 299,5 637,6 587,1 619,0 709,-19 z"
       id="path2"
       style="fill:#070d07;fill-opacity:1" />
    <path
       d="m 3690,7290 c 0,-5 5,-10 10,-10 6,0 10,-11 10,-24 0,-14 -4,-28 -10,-31 -6,-4 -10,-190 -10,-526 v -519 h 210 c 185,0 215,2 263,20 60,23 165,106 166,131 1,9 15,46 31,82 17,35 33,75 36,88 3,13 5,121 4,240 -1,214 -1,217 -31,300 -17,46 -35,99 -40,116 -7,24 -25,43 -64,67 -121,78 -111,76 -355,76 -140,0 -220,-4 -220,-10 z"
       id="path3"
       style="fill:#070d07;fill-opacity:1" />
    <path
       d="m 3971,2877 c -32,-95 -31,-97 35,-97 53,0 55,1 48,23 -17,55 -46,127 -53,132 -5,2 -18,-24 -30,-58 z"
       id="path4"
       style="fill:#070d07;fill-opacity:1" />
    <path
       d="m 1724,1094 c -16,-23 -19,-54 -22,-199 -4,-170 -4,-171 21,-200 19,-23 32,-29 63,-28 74,2 87,42 82,251 -3,136 -4,143 -29,167 -14,14 -41,28 -61,31 -32,6 -38,3 -54,-22 z"
       id="path5"
       style="fill:#070d07;fill-opacity:1" />
    <path
       d="m 3047,1113 c -10,-10 -8,-441 2,-447 15,-10 72,25 82,51 12,33 12,289 -1,334 -6,20 -16,41 -23,47 -18,14 -52,23 -60,15 z"
       id="path6"
       style="fill:#070d07;fill-opacity:1" />
  </g>
</svg>
